<?xml version="1.0" standalone="no"?>
<!DOCTYPE svg PUBLIC "-//W3C//DTD SVG 20010904//EN"
 "http://www.w3.org/TR/2001/REC-SVG-20010904/DTD/svg10.dtd">
<svg version="1.0" xmlns="http://www.w3.org/2000/svg"
 width="1500.000000pt" height="308.000000pt" viewBox="0 0 1500.000000 308.000000"
 preserveAspectRatio="xMidYMid meet">

<g transform="translate(0.000000,308.000000) scale(0.100000,-0.100000)"
fill="#000000" stroke="none">
<path d="M9768 3005 c-70 -48 -170 -229 -252 -460 -91 -255 -85 -245 -156
-302 -67 -54 -185 -116 -280 -149 -77 -26 -203 -26 -249 1 -75 44 -96 122 -67
247 22 94 75 217 99 230 14 7 85 9 206 7 160 -3 186 -2 186 11 0 19 -72 27
-248 29 l-129 1 36 64 c20 35 36 67 36 70 0 3 -9 6 -20 6 -14 0 -32 -21 -62
-74 l-43 -75 -95 -3 c-81 -3 -95 -6 -98 -20 -3 -16 6 -18 83 -18 79 0 86 -2
80 -17 -4 -10 -24 -64 -45 -121 -32 -91 -44 -111 -95 -164 -116 -119 -226
-183 -333 -194 -52 -6 -66 -4 -82 11 -24 22 -26 75 -5 136 9 24 13 49 11 55
-3 7 -26 17 -53 23 -46 10 -51 8 -133 -33 -109 -56 -207 -86 -280 -86 l-59 0
6 53 c5 47 2 56 -21 84 -15 17 -40 34 -56 38 -41 9 -95 -19 -114 -60 -20 -41
-159 -155 -236 -193 -44 -22 -69 -27 -125 -27 -89 0 -121 19 -196 117 -71 93
-131 132 -203 132 -71 0 -105 -21 -223 -137 -57 -55 -105 -98 -109 -95 -10 10
17 90 58 171 38 76 43 112 15 101 -19 -7 -95 -163 -109 -223 -10 -43 -9 -53 6
-75 9 -14 24 -26 34 -26 10 0 60 43 112 96 52 53 111 107 131 119 92 59 161
35 252 -87 81 -109 125 -133 237 -133 73 0 93 4 144 29 32 16 83 48 112 72 30
24 56 44 59 44 3 0 5 -15 5 -33 0 -85 128 -105 182 -29 10 15 31 20 103 24 98
6 196 35 293 88 31 17 71 30 90 30 33 0 34 -1 27 -27 -4 -16 -9 -53 -12 -83
-4 -46 -1 -60 17 -82 63 -81 285 -20 441 122 l67 59 6 -47 c12 -93 81 -153
193 -168 107 -14 270 38 414 131 38 25 71 45 73 45 2 0 -1 -20 -6 -44 -5 -24
-8 -64 -6 -88 4 -58 35 -64 81 -15 110 117 149 154 182 172 36 19 37 19 51 0
8 -10 14 -31 14 -45 0 -36 40 -110 71 -133 17 -12 50 -21 93 -24 87 -7 180 23
286 92 l79 52 11 -33 c25 -75 109 -114 245 -114 119 0 231 37 344 114 29 20
55 36 57 36 2 0 4 -15 4 -33 0 -44 35 -77 81 -77 39 0 93 29 109 59 9 17 20
21 66 21 95 0 200 38 297 106 26 19 49 34 52 34 3 0 5 -28 5 -63 0 -77 21
-121 79 -161 36 -26 51 -30 129 -34 48 -2 113 1 144 7 68 14 178 66 238 113
l44 35 22 -48 c35 -74 84 -102 193 -107 110 -5 182 10 279 58 96 48 189 128
179 154 -8 21 -5 22 -103 -57 -33 -26 -93 -61 -134 -79 -63 -26 -91 -32 -175
-35 -115 -5 -154 8 -192 66 -44 66 -26 206 48 370 l29 64 217 -4 c189 -3 218
-2 218 11 0 19 -81 27 -279 29 l-138 1 14 23 c8 12 27 43 42 69 25 43 26 49
11 55 -20 7 -41 -16 -82 -94 l-28 -53 -292 0 c-179 0 -293 4 -293 9 0 6 16 36
34 67 35 57 37 74 11 74 -13 0 -62 -70 -85 -121 -11 -25 -17 -27 -114 -35 -79
-7 -101 -12 -101 -24 0 -12 15 -14 89 -11 83 3 88 2 81 -15 -4 -11 -23 -57
-41 -104 -26 -67 -42 -94 -78 -127 -83 -75 -216 -133 -306 -133 l-47 0 5 48
c3 41 0 52 -22 79 -51 60 -134 48 -172 -25 -39 -72 -212 -186 -324 -211 -58
-14 -175 -14 -222 -1 -21 6 -51 22 -68 36 -26 22 -30 33 -30 74 0 38 5 53 26
74 39 38 95 53 149 38 68 -18 70 -18 70 2 0 13 -12 23 -35 32 -84 30 -155 11
-229 -63 -114 -114 -260 -193 -372 -201 -66 -5 -69 -4 -97 26 -16 17 -35 53
-41 79 -24 93 -37 113 -74 113 -45 0 -107 -42 -194 -131 -82 -83 -88 -79 -53
35 19 59 25 68 57 81 52 22 165 116 225 188 133 159 208 316 208 434 0 62 -3
75 -26 102 -33 40 -83 42 -136 6z m109 -45 c42 -83 -23 -255 -163 -436 -34
-44 -78 -94 -97 -111 -45 -39 -127 -96 -132 -91 -6 5 74 226 124 343 64 150
100 212 157 272 57 61 89 67 111 23z m2363 -395 c0 -4 -7 -19 -15 -36 -27 -50
-75 -209 -75 -244 0 -28 -9 -41 -52 -79 -62 -54 -172 -111 -246 -127 -82 -17
-204 -9 -239 17 -88 64 -86 206 7 412 l29 62 295 0 c163 0 296 -2 296 -5z
m-4559 -279 c7 -14 9 -40 5 -61 -6 -31 -10 -35 -29 -29 -24 7 -87 51 -87 61 0
4 10 17 22 30 29 31 75 31 89 -1z m3400 0 c11 -22 5 -96 -7 -96 -13 0 -82 40
-94 55 -11 13 -9 19 10 40 31 33 76 34 91 1z m-3432 -133 c3 -2 -5 -13 -16
-25 -24 -23 -71 -27 -84 -7 -10 16 -12 73 -3 82 5 5 79 -31 103 -50z m3354 29
l57 -29 -23 -20 c-53 -49 -97 -32 -97 38 0 21 2 39 4 39 2 0 29 -13 59 -28z"/>
<path d="M4333 2894 c-46 -23 -105 -104 -162 -224 -65 -137 -100 -261 -108
-380 l-6 -95 -59 -54 c-33 -30 -88 -76 -123 -102 -71 -54 -68 -55 -80 36 -8
59 -35 124 -59 145 -28 22 -80 17 -122 -12 -22 -15 -59 -41 -83 -57 -24 -17
-47 -31 -52 -31 -10 0 -26 53 -34 112 -3 26 -10 50 -16 53 -5 4 -35 -14 -67
-38 -102 -80 -204 -118 -314 -119 -100 -1 -183 53 -172 110 4 21 -3 35 -33 66
-21 21 -52 45 -70 52 -74 32 -193 4 -231 -54 -68 -104 -213 -198 -340 -223
-170 -32 -274 17 -288 137 -8 62 22 187 67 284 l31 67 65 7 c35 4 134 4 219 0
138 -6 154 -5 154 9 0 24 -50 30 -242 31 -92 1 -168 3 -168 6 0 3 16 30 35 60
40 64 44 83 14 78 -15 -2 -34 -25 -62 -75 l-41 -73 -67 0 c-85 0 -129 -9 -129
-26 0 -11 20 -14 85 -14 47 0 85 -4 85 -9 0 -5 -12 -35 -26 -67 -59 -132 -78
-271 -49 -342 34 -79 85 -111 191 -119 127 -10 264 31 374 112 l48 35 11 -44
c6 -24 23 -58 37 -75 23 -28 31 -31 82 -31 71 0 148 41 191 101 28 37 30 39
40 21 6 -11 31 -30 57 -42 41 -20 57 -22 147 -18 112 6 202 33 288 88 25 17
48 30 51 30 3 0 8 -17 12 -38 3 -22 15 -51 27 -66 30 -38 62 -30 147 34 111
84 151 60 172 -102 l9 -75 -55 -56 c-64 -67 -122 -154 -153 -229 -19 -46 -29
-57 -82 -88 -126 -72 -182 -172 -183 -325 -1 -113 19 -160 105 -251 69 -72
167 -138 308 -209 212 -106 355 -212 409 -304 24 -41 27 -56 27 -136 0 -101
-9 -126 -71 -189 -112 -115 -325 -139 -493 -55 -77 38 -164 126 -203 203 -17
34 -32 63 -34 65 -8 9 -64 -23 -64 -36 0 -29 69 -129 125 -182 67 -64 139 -98
248 -118 88 -16 220 -12 305 8 215 53 345 206 345 404 0 169 -115 289 -453
470 -172 92 -305 181 -356 237 -91 101 -99 227 -21 329 37 49 63 63 52 29 -11
-36 5 -137 29 -172 17 -26 30 -34 58 -36 33 -3 40 1 68 39 32 45 53 105 72
207 10 52 15 62 32 62 39 0 146 -30 189 -51 60 -31 146 -123 187 -200 l35 -66
32 13 32 14 -16 37 c-27 65 -85 144 -135 183 -62 50 -142 79 -251 93 -72 9
-86 14 -82 27 4 14 35 233 35 251 0 4 35 32 78 62 42 30 101 76 130 102 29 26
54 46 55 44 1 -2 9 -17 17 -33 27 -52 64 -71 138 -71 56 0 78 6 132 33 36 18
89 50 118 72 29 22 55 40 57 40 3 0 5 -14 5 -30 0 -46 39 -80 90 -80 32 0 48
7 78 35 38 34 39 34 108 28 124 -10 284 26 424 95 66 32 108 41 132 26 4 -3 0
-20 -8 -39 -18 -45 -18 -115 1 -142 45 -64 200 -45 385 47 125 63 266 178 243
201 -7 7 -24 -2 -57 -31 -183 -157 -454 -263 -531 -206 -24 17 -24 79 0 146 8
24 12 47 7 52 -5 5 -32 11 -60 15 -46 5 -59 2 -119 -30 -108 -56 -223 -88
-340 -94 -127 -7 -134 -5 -123 42 16 73 -31 145 -95 145 -30 0 -84 -37 -95
-64 -22 -58 -236 -205 -322 -221 -68 -13 -148 34 -148 87 0 10 25 48 56 85
112 132 229 330 274 464 49 144 -4 234 -107 183z m77 -43 c40 -76 -62 -299
-244 -535 -69 -90 -75 -87 -56 33 43 266 245 604 300 502z m-1663 -532 c39
-15 83 -59 83 -84 0 -39 -64 -116 -122 -146 -49 -25 -112 -25 -137 0 -23 23
-36 80 -27 122 18 89 115 141 203 108z m1971 -21 c15 -15 16 -94 2 -103 -15
-9 -100 43 -100 60 0 40 70 71 98 43z m-42 -134 c31 -8 26 -24 -14 -47 -30
-18 -34 -18 -57 -3 -25 16 -30 40 -19 83 l6 23 30 -25 c16 -14 41 -28 54 -31z
m-928 -419 l-13 -80 -43 -9 c-26 -6 -42 -14 -42 -24 0 -11 8 -13 36 -9 l36 6
-7 -45 c-15 -105 -69 -224 -100 -224 -43 0 -64 110 -41 218 18 86 58 165 129
253 l52 64 3 -35 c1 -19 -4 -71 -10 -115z"/>
<path d="M12970 2231 l0 -151 25 0 25 0 0 140 0 140 33 0 c41 0 53 -8 66 -44
14 -34 -3 -76 -37 -91 -12 -5 -21 -13 -20 -17 2 -4 26 -34 53 -67 34 -41 57
-61 73 -61 12 0 22 3 22 6 0 3 -23 31 -50 62 -45 50 -48 57 -31 63 51 19 66
91 28 135 -21 24 -32 28 -105 32 l-82 5 0 -152z"/>
<path d="M13270 2230 c0 -179 18 -207 22 -35 l3 116 100 -115 c55 -64 103
-116 108 -116 4 0 7 68 7 150 0 173 -18 209 -22 44 l-3 -105 -94 105 c-52 58
-101 106 -108 106 -10 0 -13 -33 -13 -150z"/>
<path d="M630 1517 c-35 -78 -158 -347 -273 -597 -115 -250 -225 -493 -245
-540 -67 -162 -52 -274 43 -320 53 -26 90 -25 145 3 59 29 90 76 90 135 0 62
-28 115 -111 212 l-71 81 30 67 c77 171 392 845 397 850 7 7 3 15 78 -153 36
-82 116 -262 178 -400 61 -137 158 -353 214 -480 56 -126 108 -242 115 -257
13 -28 15 -28 106 -28 l94 0 -24 53 c-13 28 -80 178 -149 332 -69 154 -180
402 -247 550 -66 149 -157 352 -202 453 -45 100 -86 182 -92 182 -6 0 -40 -64
-76 -143z"/>
<path d="M12735 1654 c-323 -51 -584 -286 -667 -599 -28 -108 -30 -289 -4
-395 78 -313 314 -536 631 -595 109 -21 299 -16 390 9 146 41 289 139 389 267
52 66 55 73 39 85 -10 7 -21 14 -25 14 -4 0 -25 -26 -46 -57 -55 -81 -165
-183 -242 -225 -87 -48 -159 -68 -246 -68 -255 0 -480 139 -588 362 -71 147
-81 195 -81 398 0 205 10 254 82 400 38 78 61 110 127 176 137 138 303 203
490 192 85 -6 198 -41 246 -78 l25 -19 -19 -53 c-51 -145 -60 -255 -23 -308
52 -77 129 -98 207 -58 61 31 90 77 90 143 0 66 -31 116 -134 213 -85 80 -206
147 -321 177 -60 16 -263 28 -320 19z"/>
<path d="M14233 1646 c-205 -50 -327 -211 -311 -411 13 -160 126 -275 422
-429 183 -95 276 -158 344 -231 74 -78 97 -138 89 -231 -8 -106 -65 -181 -174
-231 -218 -100 -489 1 -602 225 l-31 62 -35 -17 -35 -17 36 -65 c94 -174 240
-251 475 -251 236 0 408 88 485 247 22 47 29 76 32 150 4 82 2 97 -22 148 -29
65 -112 152 -202 213 -34 22 -144 87 -245 142 -323 179 -410 265 -410 404 0
103 56 187 159 238 64 32 72 33 182 33 97 -1 124 -4 174 -24 75 -30 177 -129
224 -218 18 -35 35 -63 37 -63 2 0 16 5 30 12 31 14 28 38 -12 108 -65 110
-173 187 -297 209 -78 14 -248 13 -313 -3z"/>
<path d="M10080 1280 l0 -350 -325 0 -325 0 0 -45 0 -45 323 -2 322 -3 3 -372
2 -373 95 0 95 0 2 373 3 372 348 3 347 2 0 45 0 45 -349 0 -348 0 -8 350 -7
350 -89 0 -89 0 0 -350z"/>
<path d="M1902 855 l3 -765 508 -3 507 -2 0 23 0 22 -408 0 c-225 0 -411 2
-413 4 -2 2 -3 167 -1 365 l2 361 276 0 275 0 -3 23 -3 22 -275 3 -275 2 3
335 3 335 409 0 c403 0 410 0 410 20 0 20 -7 20 -510 20 l-510 0 2 -765z"/>
<path d="M4640 1600 c0 -20 7 -20 285 -20 l285 0 0 -744 0 -745 91 -3 c50 -2
93 -1 95 1 2 2 4 339 4 748 l0 743 285 0 c278 0 285 0 285 20 0 20 -7 20 -665
20 -658 0 -665 0 -665 -20z"/>
<path d="M6400 853 l0 -768 95 3 95 3 0 385 0 384 435 0 435 0 0 -385 0 -385
90 0 90 0 0 765 0 765 -90 0 -90 0 0 -355 0 -355 -435 0 -435 0 0 355 0 355
-95 0 -95 0 0 -767z"/>
<path d="M8230 853 l0 -768 505 0 505 0 0 23 0 22 -410 0 -410 0 0 365 0 365
276 0 275 0 -3 23 -3 22 -272 3 -273 2 0 335 0 335 410 0 c403 0 410 0 410 20
0 20 -7 20 -505 20 l-505 0 0 -767z"/>
<path d="M11332 854 l3 -766 95 0 95 0 2 766 3 766 -100 0 -100 0 2 -766z"/>
</g>
</svg>
